<?xml version="1.0" encoding="utf-8"?>
<!-- Generator: Adobe Illustrator 25.0.1, SVG Export Plug-In . SVG Version: 6.00 Build 0)  -->
<svg version="1.1" id="Layer_1" xmlns="http://www.w3.org/2000/svg" xmlns:xlink="http://www.w3.org/1999/xlink" x="0px" y="0px"
     viewBox="0 0 494.2 182.3" style="enable-background:new 0 0 494.2 182.3;" xml:space="preserve">
<style type="text/css">
	.st0{fill:#FDF100;}
	.st1{fill:#3F47CC;}
	.st2{fill:#00A3E8;}
</style>
    <path class="st0" d="M26.2,90.3c8.6-0.7,19.6,0.7,30.5,0.8c4.7,0,7.6,3,10.6,5.9c21,20.9,42,41.9,63,62.9c5.4,5.4,11,10.7,16.2,16.3
	c2.7,2.9,4.6,2.7,7.3-0.1c10.7-11.5,20.5-23.6,30.2-35.9c27.1-34,53.8-68.2,81-102.1c8.6-10.8,17.2-21.6,27-31.4
	c2.6-2.9,6.3-4.5,10.2-4.5c17,0,34,0,51,0c1.4,0,3.3-0.6,4,1.2c0.6,1.4-1,2.3-1.9,3.3c-17.9,20-34.4,41.1-51,62.2
	c-24.7,31.4-48.9,63.2-74.4,93.9c-4.6,5.5-9.7,10.6-14.5,15.8c-1.8,2-4.4,3.1-7.1,3c-37.6,1-75.3,0.5-112.9,0.7
	c-4.7,0.1-9.2-1.8-12.3-5.2c-26.7-27.2-53.4-54.4-80.3-81.6c-1.1-1.1-3.2-2.1-2.5-3.9s2.9-1.2,4.5-1.2
	C11.2,90.3,17.5,90.3,26.2,90.3z"/>
    <path class="st1" d="M337.6,181.6c-35.5,0-71,0-106.5-0.1c-2,0-4.9,1.1-5.8-1.2c-0.6-1.8,1.8-3.4,3.2-4.7
	c9.3-9.2,18.8-18.4,28.1-27.7c2.7-2.7,5.8-2.8,9.2-2.8c56.8,0,113.7,0,170.5,0c3.7,0,7.3-0.2,10.7-1.8c7.8-3.6,11.4-10.9,9.7-19.9
	c-1.3-7.1-7.9-12.6-15.8-12.9c-5-0.2-10-0.1-15-0.2c-1.1,0-2.5,0.2-3.1-1.1s0.6-2.1,1.4-2.9c8.9-8.8,17.6-17.7,26.6-26.4
	c4.1-3.9,8.3-3.9,14.7-0.5c14.5,7.8,23.6,19.7,27.2,35.8c6.4,28.9-8.8,55.8-36.3,64.1c-5.6,1.7-11.4,2.1-17.3,2
	c-33.8,0-67.7,0-101.5,0L337.6,181.6z"/>
    <path class="st2" d="M55.6,2.2c14.8,0,29.7-0.4,44.5,0.1c11.2,0.4,22.6,0,33.6,3.5c23.6,7.5,43.8,34,43.9,59.3
	c0.1,21.8-6.3,40.1-22.5,54.9c-5.6,5.1-12.2,8.6-19.3,11.3c-4.2,1.6-7.6,0.7-10.9-2.6c-11.1-11.3-22.4-22.4-33.5-33.6
	c-0.9-0.9-2.6-1.7-1.9-3.2s2.3-0.8,3.6-0.9c6.5-0.3,12.9,0.1,19.4-0.6c14.4-1.7,20.4-12.1,19.4-23.7c-1-11.4-10.1-19.2-23.3-19.3
	c-19.2-0.1-38.3-0.2-57.5,0.1c-5.4,0.2-10.6-2-14.2-5.9C25.6,30.3,14.2,19,3,7.7C1.7,6.4-0.6,5.4,0.1,3.4s3.2-1.2,4.9-1.2
	C21.9,2.1,38.7,2.2,55.6,2.2z"/>
    <path class="st1" d="M455.5,0.1c7.3,0,14.7,0,22,0c1.7,0,3.8-0.1,4.5,1.6s-1.2,2.6-2.2,3.6c-8.9,9-18,17.9-26.9,26.9
	c-3.3,3.6-8.1,5.5-13,5.3c-4.8-0.2-9.7-0.1-14.5,0c-9.7,0.3-16.2,6.9-16.3,16.5c-0.1,10.6,5.9,17.5,15.9,18
	c5.1,0.3,10.3,0.1,15.5,0.1c1,0,2.1-0.2,2.6,1s-0.4,1.9-1.1,2.6c-9.3,9.3-18.3,19-28.1,27.7c-3,2.7-6.4,2.5-9.8,1.1
	c-18.7-7.9-28.6-22.4-32-42.1c-4.6-26.3,12.6-53.3,38.5-59.9c8.6-2.2,17.5-1.5,26.3-2.3C443.1-0.2,449.3,0.2,455.5,0.1L455.5,0.1z"
    />
</svg>